<?xml version="1.0" encoding="UTF-8" standalone="no"?>
<svg xmlns="http://www.w3.org/2000/svg" viewBox="0 0 48 48" width="48" height="48">
  <!-- Navy blue circle background -->
  <circle cx="24" cy="24" r="24" fill="#003366"/>
  
  <!-- White brain and face icon -->
  <g fill="#FFFFFF" transform="scale(0.065) translate(12, 12)">
    <!-- Brain half -->
    <path d="M310,170 C250,170 200,220 200,290 C200,320 210,350 230,370 C220,380 215,395 215,410 C215,440 240,465 270,465 C285,465 300,460 310,450 L310,170 Z" />
    <path d="M270,200 C250,200 235,215 235,235 C235,245 240,255 245,260 L245,290 C245,300 250,305 260,305 C270,305 275,300 275,290 L275,235 C285,230 290,220 290,210 C290,200 280,200 270,200 Z" />
    <path d="M215,330 C195,330 180,345 180,365 C180,385 195,400 215,400 C225,400 235,395 240,385 C250,390 260,390 270,390 C280,390 290,385 295,380 C300,390 310,395 320,395 C340,395 355,380 355,360 C355,340 340,325 320,325 C310,325 300,330 295,340 C290,335 280,330 270,330 C260,330 250,335 245,340 C235,335 225,330 215,330 Z" />
    
    <!-- Face half -->
    <path d="M395,170 L395,450 C405,460 420,465 435,465 C465,465 490,440 490,410 C490,395 485,380 475,370 C495,350 505,320 505,290 C505,220 455,170 395,170 Z" />
    <path d="M410,210 C410,220 415,230 425,235 L425,290 C425,300 430,305 440,305 C450,305 455,300 455,290 L455,260 C460,255 465,245 465,235 C465,215 450,200 430,200 C420,200 410,200 410,210 Z" />
    <path d="M410,360 C410,380 425,395 445,395 C455,395 465,390 470,380 C475,385 485,390 495,390 C505,390 515,390 525,385 C530,395 540,400 550,400 C570,400 585,385 585,365 C585,345 570,330 550,330 C540,330 530,335 520,340 C515,335 505,330 495,330 C485,330 475,335 470,340 C465,330 455,325 445,325 C425,325 410,340 410,360 Z" />
  </g>
</svg>